<svg version="1.1" xmlns="http://www.w3.org/2000/svg"
    viewBox="0 0 1018.8280722817476 276.46673390240267" width="1018.8280722817476"
    height="276.46673390240267">

    <rect x="0" y="0" width="1018.8280722817476" height="276.46673390240267" fill="#ffffff"></rect>
    <g transform="translate(92.761141482325 221.2791221813959) rotate(0 12.383995056152344 22.5)">
        <text x="12.383995056152344" y="0"
            font-family="Roboto, Trebuchet MS, system-ui"
            font-size="36px"
            fill="#000000" text-anchor="middle" style="white-space: pre;" direction="ltr"
            dominant-baseline="text-before-edge">0</text>
    </g>
    <g transform="translate(182.4081931622204 220.2791221813959) rotate(0 4.877998352050781 22.5)">
        <text x="4.877998352050781" y="0"
            font-family="Roboto, Trebuchet MS, system-ui"
            font-size="36px"
            fill="#c92a2a" text-anchor="middle" style="white-space: pre;" direction="ltr"
            dominant-baseline="text-before-edge">1</text>
    </g>
    <g transform="translate(255.66325418049655 220.2791221813959) rotate(0 12.25799560546875 22.5)">
        <text x="12.25799560546875" y="0"
            font-family="Roboto, Trebuchet MS, system-ui"
            font-size="36px"
            fill="#4dabf7" text-anchor="middle" style="white-space: pre;" direction="ltr"
            dominant-baseline="text-before-edge">4</text>
    </g>
    <g transform="translate(333.6201008054866 221.0311815216687) rotate(0 11.519996643066406 22.5)">
        <text x="11.519996643066406" y="0"
            font-family="Roboto, Trebuchet MS, system-ui"
            font-size="36px"
            fill="#4dabf7" text-anchor="middle" style="white-space: pre;" direction="ltr"
            dominant-baseline="text-before-edge">4</text>
    </g>
    <g transform="translate(410.5853635217354 221.2791221813959) rotate(0 11.123992919921875 22.5)">
        <text x="11.123992919921875" y="0"
            font-family="Roboto, Trebuchet MS, system-ui"
            font-size="36px"
            fill="#1971c2" text-anchor="middle" style="white-space: pre;" direction="ltr"
            dominant-baseline="text-before-edge">5</text>
    </g>
    <g transform="translate(484.4211984947874 221.46673390240267) rotate(0 11.519996643066406 22.5)">
        <text x="11.519996643066406" y="0"
            font-family="Roboto, Trebuchet MS, system-ui"
            font-size="36px"
            fill="#2f9e44" text-anchor="middle" style="white-space: pre;" direction="ltr"
            dominant-baseline="text-before-edge">3</text>
    </g>
    <g transform="translate(563.2890731701591 221.2790290276116) rotate(0 12.815994262695312 22.5)">
        <text x="12.815994262695312" y="0"
            font-family="Roboto, Trebuchet MS, system-ui"
            font-size="36px"
            fill="#e03131" text-anchor="middle" style="white-space: pre;" direction="ltr"
            dominant-baseline="text-before-edge">1</text>
    </g>
    <g transform="translate(645.748526312891 221.2791221813959) rotate(0 12.383995056152344 22.5)">
        <text x="12.383995056152344" y="0"
            font-family="Roboto, Trebuchet MS, system-ui"
            font-size="36px"
            fill="#e8590c" text-anchor="middle" style="white-space: pre;" direction="ltr"
            dominant-baseline="text-before-edge">2</text>
    </g>
    <g transform="translate(728.3955779927874 220.2791221813959) rotate(0 4.877998352050781 22.5)">
        <text x="4.877998352050781" y="0"
            font-family="Roboto, Trebuchet MS, system-ui"
            font-size="36px"
            fill="#e03131" text-anchor="middle" style="white-space: pre;" direction="ltr"
            dominant-baseline="text-before-edge">1</text>
    </g>
    <g transform="translate(793.5986370579383 219.37524061526392) rotate(0 12.815994262695312 22.5)">
        <text x="12.815994262695312" y="0"
            font-family="Roboto, Trebuchet MS, system-ui"
            font-size="36px"
            fill="#e8590c" text-anchor="middle" style="white-space: pre;" direction="ltr"
            dominant-baseline="text-before-edge">2</text>
    </g>
    <g transform="translate(887.6776879443776 220.3715437524229) rotate(0 4.877998352050781 22.5)">
        <text x="4.877998352050781" y="0"
            font-family="Roboto, Trebuchet MS, system-ui"
            font-size="36px"
            fill="#c92a2a" text-anchor="middle" style="white-space: pre;" direction="ltr"
            dominant-baseline="text-before-edge">1</text>
    </g>
    <g stroke-linecap="round">
        <g
            transform="translate(105.9646741724996 211.38895965091933) rotate(0 -0.22622941179423606 -13.86436044758716)">
            <path
                d="M0 -1.19 C0.24 -5.65, 1.03 -22.58, 1.01 -26.86 M-1.46 0.8 C-1.32 -3.98, -0.4 -23.61, 0.24 -28.53"
                stroke="#000000" stroke-width="2" fill="none"></path>
        </g>
    </g>
    <mask></mask>
    <g
        transform="translate(75.48003106338138 86.76398534669215) rotate(318.5756473350861 97.15995025634766 17.5)">
        <text x="0" y="0" font-family="Roboto, Trebuchet MS, system-ui"
            font-size="28px"
            fill="#000000"
            text-anchor="start" style="white-space: pre;" direction="ltr"
            dominant-baseline="text-before-edge">Graphic design</text>
    </g>
    <g stroke-linecap="round">
        <g
            transform="translate(186.9977764110813 211.4775086880104) rotate(0 0.49111340322463093 -14.114171105707783)">
            <path
                d="M-0.77 0.87 C-0.53 -3.81, 1.53 -22.31, 1.75 -27.23 M1.03 0.28 C1.17 -4.84, 1.58 -24.41, 1.36 -29.1"
                stroke="#000000" stroke-width="2" fill="none"></path>
        </g>
    </g>
    <mask></mask>
    <g
        transform="translate(157.9344850974885 88.94540193661169) rotate(318.5756473350861 89.83795928955078 17.5)">
        <text x="0" y="0" font-family="Roboto, Trebuchet MS, system-ui"
            font-size="28px"
            fill="#000000"
            text-anchor="start" style="white-space: pre;" direction="ltr"
            dominant-baseline="text-before-edge">UI/UX design</text>
    </g>
    <g stroke-linecap="round">
        <g
            transform="translate(346.0531311686127 211.40415827773768) rotate(0 0.22037091884692472 -13.745556006366996)">
            <path
                d="M-0.13 -0.94 C-0.33 -5.8, -0.41 -24.08, -0.17 -28.68 M-1.65 1.19 C-1.58 -3.6, 1.68 -22.85, 2.09 -27.65"
                stroke="#000000" stroke-width="2" fill="none"></path>
        </g>
    </g>
    <mask></mask>
    <g
        transform="translate(321.7705844774305 101.51579809586974) rotate(318.5756473350861 70.72798156738281 17.5)">
        <text x="0" y="0" font-family="Roboto, Trebuchet MS, system-ui"
            font-size="28px"
            fill="#000000"
            text-anchor="start" style="white-space: pre;" direction="ltr"
            dominant-baseline="text-before-edge">Web pages</text>
    </g>
    <g stroke-linecap="round">
        <g
            transform="translate(891.8123929816115 214.39414779323533) rotate(0 0.11495956850308175 -13.115057238871941)">
            <path
                d="M0.61 -0.8 C0.87 -5.24, 0.7 -23.08, 0.68 -27.63 M-0.52 1.4 C-0.35 -2.75, -0.29 -21.32, -0.26 -26.05"
                stroke="#000000" stroke-width="2" fill="none"></path>
        </g>
    </g>
    <mask></mask>
    <g
        transform="translate(869.5682346533581 109.89676075608395) rotate(318.5756473350861 62.57997131347656 17.5)">
        <text x="0" y="0" font-family="Roboto, Trebuchet MS, system-ui"
            font-size="28px"
            fill="#000000"
            text-anchor="start" style="white-space: pre;" direction="ltr"
            dominant-baseline="text-before-edge">Hardware</text>
    </g>
    <g stroke-linecap="round">
        <g
            transform="translate(658.6500397744976 215.85960739350367) rotate(0 -0.36125279010809663 -14.381120752776724)">
            <path
                d="M-0.18 -0.37 C-0.01 -4.85, 0.81 -22.35, 1.01 -26.77 M-1.73 -1.61 C-1.7 -6.42, -0.12 -23.86, 0.24 -28.39"
                stroke="#000000" stroke-width="2" fill="none"></path>
        </g>
    </g>
    <mask></mask>
    <g
        transform="translate(638.2837711044413 116.56793268492265) rotate(318.5756473350861 54.71196746826172 17.5)">
        <text x="0" y="0" font-family="Roboto, Trebuchet MS, system-ui"
            font-size="28px"
            fill="#000000"
            text-anchor="start" style="white-space: pre;" direction="ltr"
            dominant-baseline="text-before-edge">Security</text>
    </g>
    <g stroke-linecap="round">
        <g
            transform="translate(582.5427753719209 212.83962501227097) rotate(0 -0.10416798760991242 -13.506599190194038)">
            <path
                d="M0.32 0.83 C0.39 -3.97, 0.74 -23.19, 0.77 -27.84 M-0.97 0.22 C-1.08 -4.47, -0.23 -21.48, -0.13 -26.37"
                stroke="#000000" stroke-width="2" fill="none"></path>
        </g>
    </g>
    <mask></mask>
    <g
        transform="translate(558.7289355782073 103.95165102709188) rotate(318.5756473350861 69.21598052978516 17.5)">
        <text x="0" y="0" font-family="Roboto, Trebuchet MS, system-ui"
            font-size="28px"
            fill="#000000"
            text-anchor="start" style="white-space: pre;" direction="ltr"
            dominant-baseline="text-before-edge">Database</text>
    </g>
    <g stroke-linecap="round">
        <g
            transform="translate(806.7696585340486 212.59287650154556) rotate(0 -0.48737515763787087 -13.961967318738743)">
            <path
                d="M-0.19 0.62 C-0.08 -3.84, 0.56 -21.97, 0.78 -26.86 M-1.75 -0.11 C-1.8 -4.88, -0.5 -23.89, -0.11 -28.54"
                stroke="#000000" stroke-width="2" fill="none"></path>
        </g>
    </g>
    <mask></mask>
    <g
        transform="translate(781.5554825330041 100.24061460122493) rotate(318.5756473350861 74.45196533203125 17.5)">
        <text x="0" y="0" font-family="Roboto, Trebuchet MS, system-ui"
            font-size="28px"
            fill="#000000"
            text-anchor="start" style="white-space: pre;" direction="ltr"
            dominant-baseline="text-before-edge">Deployment</text>
    </g>
    <g stroke-linecap="round">
        <g
            transform="translate(78.31611252855646 213.06390149262688) rotate(0 417.5576122269364 1.3848330766727486)">
            <path
                d="M0.43 -1.05 C139.73 -0.74, 696.75 1.89, 835.92 2.7 M-0.81 1.02 C138.3 1.38, 695 3.1, 834.79 3.82"
                stroke="#000000" stroke-width="2" fill="none"></path>
        </g>
    </g>
    <mask></mask>
    <g transform="translate(10 192.1234279979758) rotate(0 31.275985717773438 17.5)">
        <text x="0" y="0" font-family="Roboto, Trebuchet MS, system-ui"
            font-size="28px"
            fill="#000000"
            text-anchor="start" style="white-space: pre;" direction="ltr"
            dominant-baseline="text-before-edge">User</text>
    </g>
    <g transform="translate(922.4481131753023 196.0316752169124) rotate(0 43.189979553222656 17.5)">
        <text x="0" y="0" font-family="Roboto, Trebuchet MS, system-ui"
            font-size="28px"
            fill="#000000"
            text-anchor="start" style="white-space: pre;" direction="ltr"
            dominant-baseline="text-before-edge">Server</text>
    </g>
    <g stroke-linecap="round">
        <g
            transform="translate(733.996022424024 212.08562035907426) rotate(0 -0.22463278493910366 -13.76408202882476)">
            <path
                d="M-1.12 0.8 C-0.87 -3.97, 0.17 -23.65, 0.67 -28.33 M0.49 0.18 C0.65 -4.48, -0.49 -22.19, -0.28 -27.12"
                stroke="#000000" stroke-width="2" fill="none"></path>
        </g>
    </g>
    <mask></mask>
    <g
        transform="translate(709.7246005881948 102.46589618477128) rotate(318.5756473350861 70.32196044921875 17.5)">
        <text x="0" y="0" font-family="Roboto, Trebuchet MS, system-ui"
            font-size="28px"
            fill="#000000"
            text-anchor="start" style="white-space: pre;" direction="ltr"
            dominant-baseline="text-before-edge">Networking</text>
    </g>
    <g stroke-linecap="round">
        <g
            transform="translate(267.42317652527026 212.63875979196428) rotate(0 0.9721237761467592 -13.595889499146324)">
            <path
                d="M1.2 0.44 C1.17 -4.06, 0.11 -23.12, -0.16 -27.63 M0.37 -0.37 C0.72 -4.61, 1.86 -21.38, 2.11 -26.05"
                stroke="#000000" stroke-width="2" fill="none"></path>
        </g>
    </g>
    <mask></mask>
    <g
        transform="translate(241.47700415783038 98.3505700650162) rotate(318.5756473350861 77.37796020507812 17.5)">
        <text x="0" y="0" font-family="Roboto, Trebuchet MS, system-ui"
            font-size="28px"
            fill="#000000"
            text-anchor="start" style="white-space: pre;" direction="ltr"
            dominant-baseline="text-before-edge">Integration</text>
    </g>
    <g stroke-linecap="round">
        <g
            transform="translate(423.1672295879771 210.1949603416847) rotate(0 -0.27698921880744365 -13.861501290757133)">
            <path
                d="M-1.13 1.06 C-0.89 -3.75, 0.36 -23.88, 0.57 -28.78 M0.49 0.57 C0.63 -4.13, -0.19 -23.15, -0.43 -27.81"
                stroke="#000000" stroke-width="2" fill="none"></path>
        </g>
    </g>
    <mask></mask>
    <g
        transform="translate(389.8310366968244 76.36221134096331) rotate(318.5756473350861 106.9179458618164 17.5)">
        <text x="0" y="0" font-family="Roboto, Trebuchet MS, system-ui"
            font-size="28px"
            fill="#000000"
            text-anchor="start" style="white-space: pre;" direction="ltr"
            dominant-baseline="text-before-edge">Application logic</text>
    </g>
    <g stroke-linecap="round">
        <g
            transform="translate(495.1377400096949 212.66939171430886) rotate(0 0.40230921200986813 -13.36728818082338)">
            <path
                d="M-0.55 -0.66 C-0.38 -5.21, 0.85 -23.84, 0.94 -28.34 M1.36 1.6 C1.4 -2.7, 0.55 -22.48, 0.13 -27.13"
                stroke="#000000" stroke-width="2" fill="none"></path>
        </g>
    </g>
    <mask></mask>
    <g
        transform="translate(464.1726564177011 85.10757066207088) rotate(318.5756473350861 97.43995666503906 17.5)">
        <text x="0" y="0" font-family="Roboto, Trebuchet MS, system-ui"
            font-size="28px"
            fill="#000000"
            text-anchor="start" style="white-space: pre;" direction="ltr"
            dominant-baseline="text-before-edge">APIs</text>
    </g>
</svg>