<?xml version="1.0" encoding="iso-8859-1"?>
<!-- Uploaded to: SVG Repo, www.svgrepo.com, Generator: SVG Repo Mixer Tools -->
<svg height="800px" width="800px" version="1.1" id="Layer_1" xmlns="http://www.w3.org/2000/svg" xmlns:xlink="http://www.w3.org/1999/xlink" 
	 viewBox="0 0 512 512" xml:space="preserve">
<g>
	<path style="fill:#48A0DC;" d="M211.862,233.931H17.655C7.901,233.931,0,226.03,0,216.276V22.069
		C0,12.314,7.901,4.414,17.655,4.414h194.207c9.754,0,17.655,7.901,17.655,17.655v194.207
		C229.517,226.03,221.617,233.931,211.862,233.931"/>
	<g>
		<path style="fill:#B0B6BB;" d="M467.862,260.414c-4.873,0-8.828-3.955-8.828-8.828c0-5.685-0.212-11.405-0.636-16.993
			c-0.371-4.864,3.266-9.101,8.13-9.472c4.855-0.38,9.101,3.275,9.472,8.139c0.459,6.029,0.689,12.2,0.689,18.326
			C476.69,256.459,472.735,260.414,467.862,260.414"/>
		<path style="fill:#B0B6BB;" d="M445.884,164.461c-3.231,0-6.347-1.783-7.901-4.864c-2.895-5.773-6.144-11.467-9.64-16.914
			c-2.631-4.105-1.439-9.56,2.657-12.2c4.096-2.631,9.569-1.448,12.2,2.666c3.831,5.959,7.389,12.191,10.567,18.52
			c2.189,4.352,0.424,9.666-3.928,11.855C448.568,164.161,447.217,164.461,445.884,164.461 M462.78,212.457
			c-4.061,0-7.715-2.816-8.625-6.947c-1.395-6.391-3.107-12.738-5.085-18.856c-1.51-4.634,1.042-9.613,5.676-11.114
			c4.652-1.51,9.622,1.042,11.114,5.676c2.163,6.665,4.025,13.568,5.553,20.533c1.033,4.758-1.986,9.463-6.744,10.505
			C464.034,212.395,463.398,212.457,462.78,212.457"/>
		<path style="fill:#B0B6BB;" d="M332.53,67.793c-0.9,0-1.818-0.141-2.719-0.433c-6.109-1.977-12.456-3.699-18.856-5.094
			c-4.767-1.042-7.777-5.747-6.744-10.514c1.05-4.758,5.738-7.777,10.514-6.735c6.956,1.518,13.868,3.39,20.524,5.544
			c4.634,1.501,7.186,6.479,5.676,11.123C339.716,65.41,336.255,67.793,332.53,67.793 M378.504,89.483
			c-1.633,0-3.284-0.45-4.758-1.404c-5.411-3.469-11.096-6.718-16.905-9.64c-4.352-2.189-6.109-7.495-3.911-11.855
			c2.18-4.352,7.477-6.109,11.847-3.911c6.356,3.196,12.588,6.753,18.511,10.558c4.105,2.631,5.288,8.095,2.657,12.2
			C384.26,88.053,381.417,89.483,378.504,89.483 M417.257,122.436c-2.428,0-4.838-0.989-6.577-2.931
			c-4.334-4.829-8.96-9.454-13.745-13.745c-3.628-3.249-3.928-8.828-0.68-12.465c3.249-3.619,8.828-3.946,12.465-0.68
			c5.261,4.714,10.346,9.79,15.104,15.095c3.249,3.628,2.948,9.207-0.68,12.473C421.459,121.686,419.349,122.436,417.257,122.436"/>
		<path style="fill:#B0B6BB;" d="M282.496,58.043c-0.221,0-0.45-0.009-0.68-0.026c-5.588-0.424-11.299-0.636-16.984-0.636
			c-4.882,0-8.828-3.955-8.828-8.828c0-4.873,3.946-8.828,8.828-8.828c6.126,0,12.288,0.23,18.326,0.689
			c4.855,0.362,8.501,4.608,8.13,9.472C290.944,54.521,287.069,58.043,282.496,58.043"/>
		<path style="fill:#B0B6BB;" d="M44.793,295.729c-4.573,0-8.448-3.522-8.792-8.157c-0.459-6.038-0.689-12.2-0.689-18.326
			c0-4.882,3.955-8.828,8.828-8.828c4.873,0,8.828,3.946,8.828,8.828c0,5.685,0.212,11.396,0.636,16.984
			c0.371,4.864-3.275,9.11-8.13,9.472C45.243,295.72,45.014,295.729,44.793,295.729"/>
		<path style="fill:#B0B6BB;" d="M54.534,345.724c-3.725,0-7.186-2.383-8.395-6.109c-2.163-6.665-4.025-13.568-5.553-20.533
			c-1.033-4.767,1.986-9.463,6.744-10.505c4.758-1.024,9.463,1.977,10.514,6.735c1.395,6.4,3.107,12.747,5.085,18.856
			c1.51,4.643-1.042,9.622-5.676,11.123C56.353,345.583,55.435,345.724,54.534,345.724 M76.232,391.743
			c-2.904,0-5.747-1.43-7.433-4.061c-3.831-5.967-7.389-12.2-10.567-18.52c-2.189-4.361-0.424-9.666,3.928-11.855
			c4.352-2.18,9.657-0.424,11.855,3.928c2.895,5.773,6.144,11.458,9.64,16.914c2.631,4.096,1.439,9.56-2.657,12.191
			C79.525,391.292,77.874,391.743,76.232,391.743"/>
		<path style="fill:#B0B6BB;" d="M109.164,430.466c-2.092,0-4.202-0.742-5.888-2.251c-5.261-4.723-10.337-9.799-15.095-15.095
			c-3.257-3.628-2.957-9.216,0.671-12.473c3.637-3.257,9.207-2.94,12.473,0.68c4.326,4.829,8.951,9.454,13.736,13.736
			c3.628,3.257,3.937,8.836,0.68,12.465C114.001,429.477,111.582,430.466,109.164,430.466 M151.183,459.102
			c-1.333,0-2.684-0.309-3.964-0.945c-6.356-3.204-12.579-6.753-18.511-10.558c-4.096-2.631-5.288-8.095-2.648-12.2
			c2.622-4.096,8.086-5.297,12.191-2.657c5.411,3.478,11.096,6.727,16.905,9.649c4.361,2.189,6.109,7.495,3.919,11.847
			C157.53,457.319,154.414,459.102,151.183,459.102 M199.17,476.016c-0.627,0-1.262-0.071-1.898-0.203
			c-6.956-1.527-13.859-3.39-20.524-5.553c-4.634-1.501-7.177-6.479-5.676-11.114c1.501-4.634,6.488-7.168,11.114-5.676
			c6.118,1.977,12.465,3.69,18.865,5.094c4.758,1.042,7.777,5.747,6.735,10.514C206.876,473.2,203.23,476.016,199.17,476.016"/>
		<path style="fill:#B0B6BB;" d="M247.172,481.103c-6.126,0-12.297-0.23-18.326-0.689c-4.864-0.371-8.51-4.608-8.139-9.472
			c0.371-4.864,4.529-8.554,9.472-8.13c5.588,0.424,11.308,0.636,16.993,0.636c4.873,0,8.828,3.955,8.828,8.828
			C256,477.149,252.045,481.103,247.172,481.103"/>
	</g>
	<path style="fill:#ED7161;" d="M512,322.207c0,14.627-51.377,26.483-114.759,26.483s-114.759-11.855-114.759-26.483
		c0-14.627,51.377-26.483,114.759-26.483S512,307.58,512,322.207"/>
	<path style="fill:#C9554C;" d="M397.241,348.69c-63.382,0-114.759-11.855-114.759-26.483v52.966
		c0,14.627,51.377,26.483,114.759,26.483S512,389.8,512,375.172v-52.966C512,336.834,460.623,348.69,397.241,348.69"/>
	<path style="fill:#ECBA16;" d="M397.241,401.655c-63.382,0-114.759-11.855-114.759-26.483v52.966
		c0,14.627,51.377,26.483,114.759,26.483S512,442.765,512,428.138v-52.966C512,389.8,460.623,401.655,397.241,401.655"/>
	<path style="fill:#25AE88;" d="M397.241,454.621c-63.382,0-114.759-11.855-114.759-26.483v52.966
		c0,14.627,51.377,26.483,114.759,26.483S512,495.731,512,481.103v-52.966C512,442.765,460.623,454.621,397.241,454.621"/>
	<g>
		<path style="fill:#FFFFFF;" d="M123.586,57.379H35.31c-4.873,0-8.828-3.955-8.828-8.828s3.955-8.828,8.828-8.828h88.276
			c4.873,0,8.828,3.955,8.828,8.828S128.459,57.379,123.586,57.379"/>
		<path style="fill:#FFFFFF;" d="M158.897,92.69H61.793c-4.873,0-8.828-3.955-8.828-8.828s3.955-8.828,8.828-8.828h97.103
			c4.873,0,8.828,3.955,8.828,8.828S163.769,92.69,158.897,92.69"/>
		<path style="fill:#FFFFFF;" d="M123.586,128H35.31c-4.873,0-8.828-3.955-8.828-8.828c0-4.873,3.955-8.828,8.828-8.828h88.276
			c4.873,0,8.828,3.955,8.828,8.828C132.414,124.045,128.459,128,123.586,128"/>
		<path style="fill:#FFFFFF;" d="M70.621,163.31H35.31c-4.873,0-8.828-3.955-8.828-8.828s3.955-8.828,8.828-8.828h35.31
			c4.873,0,8.828,3.955,8.828,8.828S75.494,163.31,70.621,163.31"/>
		<path style="fill:#FFFFFF;" d="M123.586,198.621H52.966c-4.873,0-8.828-3.955-8.828-8.828c0-4.873,3.955-8.828,8.828-8.828h70.621
			c4.873,0,8.828,3.955,8.828,8.828C132.414,194.666,128.459,198.621,123.586,198.621"/>
	</g>
</g>
</svg>