<?xml version="1.0" encoding="UTF-8" standalone="no"?>
<!-- Created with Inkscape (http://www.inkscape.org/) -->

<svg
   xmlns:dc="http://purl.org/dc/elements/1.1/"
   xmlns:cc="http://creativecommons.org/ns#"
   xmlns:rdf="http://www.w3.org/1999/02/22-rdf-syntax-ns#"
   xmlns:svg="http://www.w3.org/2000/svg"
   xmlns="http://www.w3.org/2000/svg"
   xmlns:sodipodi="http://sodipodi.sourceforge.net/DTD/sodipodi-0.dtd"
   xmlns:inkscape="http://www.inkscape.org/namespaces/inkscape"
   version="1.0"
   width="859.06531"
   height="752.44757"
   id="svg2"
   sodipodi:version="0.32"
   inkscape:version="0.47 r22583"
   sodipodi:docname="ZZ.svg"
   inkscape:output_extension="org.inkscape.output.svg.inkscape">
  <metadata
     id="metadata12">
    <rdf:RDF>
      <cc:Work
         rdf:about="">
        <dc:format>image/svg+xml</dc:format>
        <dc:type
           rdf:resource="http://purl.org/dc/dcmitype/StillImage" />
        <dc:title />
      </cc:Work>
    </rdf:RDF>
  </metadata>
  <sodipodi:namedview
     inkscape:window-height="1004"
     inkscape:window-width="1280"
     inkscape:pageshadow="2"
     inkscape:pageopacity="0.0"
     guidetolerance="10.0"
     gridtolerance="10.0"
     objecttolerance="10.0"
     borderopacity="1.0"
     bordercolor="#666666"
     pagecolor="#ffffff"
     id="base"
     inkscape:zoom="0.44"
     inkscape:cx="609.00323"
     inkscape:cy="375.74999"
     inkscape:window-x="-8"
     inkscape:window-y="-8"
     inkscape:current-layer="svg2"
     width="200px"
     height="200px"
     showgrid="false"
     inkscape:showpageshadow="false"
     inkscape:window-maximized="1" />
  <defs
     id="defs4">
    <inkscape:perspective
       sodipodi:type="inkscape:persp3d"
       inkscape:vp_x="0 : 450 : 1"
       inkscape:vp_y="0 : 1000 : 0"
       inkscape:vp_z="900 : 450 : 1"
       inkscape:persp3d-origin="450 : 300 : 1"
       id="perspective10" />
  </defs>
  <path
     style="font-size:medium;font-style:normal;font-variant:normal;font-weight:normal;font-stretch:normal;text-indent:0;text-align:start;text-decoration:none;line-height:normal;letter-spacing:normal;word-spacing:normal;text-transform:none;direction:ltr;block-progression:tb;writing-mode:lr-tb;text-anchor:start;color:#000000;fill:#ffffff;fill-opacity:1;stroke:#000000;stroke-width:3;stroke-miterlimit:4;stroke-dasharray:none;marker:none;visibility:visible;display:inline;overflow:visible;enable-background:accumulate;font-family:Bitstream Vera Sans;-inkscape-font-specification:Bitstream Vera Sans"
     d="m 427.95445,1.5413307 a 30.003,30.003 0 0 0 -24.375,14.9687503 L 5.5170451,705.94758 a 30.003,30.003 0 0 0 25.9686999,45 l 796.093705,0 a 30.003,30.003 0 0 0 25.9688,-45 L 455.51705,16.510081 A 30.003,30.003 0 0 0 427.95445,1.5413307 z"
     id="path3661" />
  <path
     style="font-size:medium;font-style:normal;font-variant:normal;font-weight:normal;font-stretch:normal;text-indent:0;text-align:start;text-decoration:none;line-height:normal;letter-spacing:normal;word-spacing:normal;text-transform:none;direction:ltr;block-progression:tb;writing-mode:lr-tb;text-anchor:start;color:#000000;fill:#d40000;fill-opacity:1;fill-rule:nonzero;stroke:none;stroke-width:10;marker:none;visibility:visible;display:inline;overflow:visible;enable-background:accumulate;font-family:Bitstream Vera Sans;-inkscape-font-specification:Bitstream Vera Sans"
     d="m 428.22015,6.5466287 c 4.55528,-0.23935 9.24143,0.82302 13.25,3 4.00857,2.1769803 7.43927,5.5175683 9.71875,9.4687503 L 849.22015,708.45288 c 4.2898,7.43311 4.2896,17.56677 0,25 -4.2896,7.43323 -13.07409,12.49509 -21.65625,12.5 l -796.062503,0 c -0.01026,-1e-5 -0.02099,2e-5 -0.03125,0 -8.572328,-0.017 -17.340548,-5.07567 -21.6249999,-12.5 -4.28958,-7.43322 -4.289789,-17.5669 0,-25 L 407.90765,19.015379 c 4.07668,-7.067743 12.16514,-12.0296813 20.3125,-12.4687503 z"
     id="path3663" />
  <path
     style="font-size:medium;font-style:normal;font-variant:normal;font-weight:normal;font-stretch:normal;text-indent:0;text-align:start;text-decoration:none;line-height:normal;letter-spacing:normal;word-spacing:normal;text-transform:none;direction:ltr;block-progression:tb;writing-mode:lr-tb;text-anchor:start;color:#000000;fill:#ffffff;fill-opacity:1;fill-rule:nonzero;stroke:none;stroke-width:150;marker:none;visibility:visible;display:inline;overflow:visible;enable-background:accumulate;font-family:Bitstream Vera Sans;-inkscape-font-specification:Bitstream Vera Sans"
     d="m 429.50145,124.17163 318.625,551.78125 -637.1875,0 318.5625,-551.78125 z"
     id="path3602" />
  <path
     style="fill:#000000;fill-opacity:1;fill-rule:nonzero;stroke:none"
     d="m 476.26565,310.68868 c -5.60469,0.15292 -11.70945,1.4684 -16.96875,4 -5.9891,2.88291 -15.14331,12.51121 -19.15625,20.03126 -3.68578,6.90712 -7.07837,11.25195 -8.5625,11.21874 -0.49169,-0.0111 -3.14232,-2.49654 -5.875,-5.46875 -6.74354,-7.33496 -8.30188,-7.7451 -30.6875,-7.96875 -9.61754,-0.0961 -21.7781,0.10317 -27.09375,0.59375 -6.42853,0.59331 -12.98404,1.04072 -19.03125,0.59376 -4.64021,-0.34291 -12.01725,0.79048 -15.9375,2.65624 -6.87822,3.27358 -14.21614,11.47305 -17.21875,19.59375 -1.14193,3.08823 -1.76788,6.06754 -5.03125,23.59375 -0.59656,3.20343 -1.70217,9.58154 -2.62501,14.15625 -0.9226,4.57477 -2.17645,10.04387 -2.53124,12.21875 -0.35468,2.17478 -0.70494,3.84827 -0.90625,3.84376 -0.20132,-0.004 -2.24094,-0.94557 -4.40625,-2.21876 -4.56751,-2.6859 -7.93427,-2.36267 -9.4375,0.75 -1.18734,2.45859 0.0733,5.24146 5.15625,11.0625 2.79809,3.20448 5.74999,6.18751 5.74999,6.18751 0,4e-5 -1.48006,7.75488 -3.37499,11.81249 -3.41618,7.31553 -4.0242,8.95103 -5.4375,13.96875 -1.14271,4.05726 -1.56391,9.07854 -1.78125,20.375 -0.3181,16.5377 -0.0227,21.49083 3.53125,47.03125 5.15587,37.0586 5.21446,41.0399 0.3125,66.3125 -5.14659,26.53383 -6.90449,38.925 -6.53125,47.96875 0.12684,3.07263 0.875,3.90561 0.875,6.5 0,0.9493 -0.22721,2.2186 -1.1875,3.4375 -0.77974,0.98978 -1.43962,4.08681 -1.9375,6.6875 l -102.09375,0 0,11.03125 500,0 0,-11.03125 -35.84375,0 c -0.62683,-1.41302 -1.28911,-3.04453 -2.15626,-3.84375 -1.39186,-1.28299 -4.86833,-4.11549 -7.81249,-6.03125 -2.94416,-1.91578 -7.17611,-4.6619 -9.5625,-6.21875 -7.7489,-5.05555 -13.77158,-12.4704 -17.84375,-22.09374 -3.31741,-7.83995 -6.66988,-10.50749 -19.75,-15.65626 -5.66889,-2.23145 -10.25534,-6.26995 -15.78125,-13.71875 -4.0018,-5.39424 -5.44876,-6.26982 -19.15625,-11.75 -14.5595,-5.82078 -16.95329,-5.7659 -28.3125,0.28125 -15.26907,8.12858 -24.56255,15.58592 -29.34375,23.28125 -0.8299,1.33582 -2.20536,2.35661 -2.78125,2.34375 -0.57588,-0.0128 -2.72916,-2.85582 -5.03126,-6.46875 -7.69088,-12.07053 -14.67066,-19.78644 -26.09374,-29.1875 -10.54964,-8.68211 -22.91345,-19.98548 -34.78125,-31.6875 -10.18745,-10.04533 -11.2732,-11.67723 -12.6875,-16.8125 l -1.46876,-4.84375 3.68751,-10.0625 c 3.43274,-9.40286 9.937,-21.95957 15.62499,-30.5 1.39254,-2.09086 4.03289,-8.21156 5.87501,-13.53125 l 3.25,-9.625 7.53125,-6.9375 c 9.61499,-9.03496 12.00326,-13.6488 12.8125,-24.4375 0.70991,-9.46664 -0.45517,-14.31181 -5.875,-22.71874 -4.59159,-7.12199 -5.93924,-10.77493 -4.71875,-12.93751 0.8699,-1.54179 1.53084,-1.7943 11.9375,-3.125 21.12646,-2.70151 36.90881,-17.22603 37.59374,-34.625 0.10829,-2.75483 -0.23577,-6.6857 -0.75,-8.56249 -1.12369,-4.10236 -5.50372,-11.19089 -7.34374,-11.93751 -0.7267,-0.29489 -2.03973,-1.32138 -2.81251,-2.34374 -2.38882,-3.16059 -7.65454,-4.98957 -13.87499,-5.18751 -0.77764,-0.0247 -1.54313,-0.0219 -2.34375,0 z M 353.1719,370.09493 c 0.21656,-0.0127 0.4078,-0.0152 0.59375,0 2.23127,0.18356 2.41873,1.43992 1.15625,4.28126 -2.20707,4.96655 -15.11234,22.71317 -18.125,24.90624 -3.08283,2.24415 -5.63231,2.63102 -5.59375,0.90625 0.0133,-0.58709 1.3441,-3.61303 2.9375,-6.78125 1.5934,-3.16806 4.14533,-8.92153 5.75,-12.6875 3.30083,-7.74659 5.4728,-9.64887 10.9375,-10.34375 0.90891,-0.11556 1.69395,-0.24305 2.34375,-0.28125 z m 47.6875,77.34375 c 0.17337,-0.016 0.31014,-0.0113 0.375,0.0312 1.00504,0.65252 0.95418,2.5735 -0.15625,5.78126 -0.48473,1.40038 -2.01305,6.89396 -3.25,12.09374 -1.23697,5.19974 -2.39065,9.78417 -2.8125,10.1875 -0.45336,0.43364 -1.26963,0.11186 -2.03125,-0.78125 -1.37883,-1.61728 -8.75179,-18.11321 -8.71875,-19.5937 0.0243,-1.07167 13.99322,-7.47905 16.59375,-7.71875 z m -52.0625,64.71875 0.0312,0 c 1.69859,-0.45984 25.03261,32.5825 24.96875,35.43751 -0.0265,1.19177 -3.81632,8.50249 -8.40625,16.21874 -13.63689,22.92525 -30.8125,56.24245 -30.8125,60.875 0,1.70567 1.22391,2.64164 2.34375,3.5625 0.95719,0.78711 1.65075,2.50467 1.625,3.65625 -0.0464,2.05476 -3.28266,8.26794 -5.84375,11.09375 -0.82681,0.91226 -1.54007,1.34375 -2.28125,1.34375 -0.97775,10e-6 -1.72785,-0.62561 -2.90625,-1.9375 -1.50468,-1.67528 -1.80618,-2.68565 -1.3125,-4.875 2.30022,-10.20296 4.68859,-23.74396 8.6875,-49.25 2.61954,-16.70784 3.19697,-18.30556 11.34374,-30.8125 4.77348,-7.32834 5.16124,-10.02471 3.68751,-26.40624 -0.71533,-7.95053 -1.43705,-15.26043 -1.625,-16.18751 -0.18794,-0.92715 0.0561,-2.06905 0.4375,-2.65625 0.0155,-0.0244 0.036,-0.0552 0.0625,-0.0625 l 5e-5,0 z m 81.59374,33.65626 c 1.14316,-0.3188 36.44632,30.27962 41.00001,35.53124 3.44701,3.97524 13.1639,20.22901 13.125,21.96875 -0.0111,0.50293 -2.45513,2.20369 -5.59375,3.84375 -8.76906,4.58251 -10.8041,6.18697 -19.46875,16.5 -11.22166,13.3563 -13.76827,15.40332 -26.6875,19.34375 -4.52143,1.37914 -8.0281,3.06384 -9.5625,4.53125 -0.63731,0.60929 -0.92729,1.65036 -1.03125,2.09375 l -23.78125,0 c -0.41003,-1.35341 -1.2735,-3.06991 -2.03125,-4.59375 -2.55867,-5.14583 -5.42936,-6.88662 -11.875,-7.78125 -2.6929,-0.37372 -5.35912,-1.10741 -5.6875,-1.71875 -0.32839,-0.6114 -1.72034,-1.76849 -3.09375,-2 -2.2895,-0.38597 -2.24588,-0.54252 0.59375,-0.59375 1.7503,-0.0316 4.45398,-0.89037 6.21875,-2.03125 1.71793,-1.11038 3.54007,-1.94985 4.09375,-1.9375 2.00122,0.0447 3.63274,-3.13292 7.40625,-13.71875 6.86386,-19.25526 10.36937,-26.27724 23.71875,-48.34375 3.70302,-6.12097 7.91601,-13.2032 9.28125,-15.90625 1.36522,-2.70293 2.88728,-5.05148 3.37499,-5.18749 z"
     id="rect4689"
     sodipodi:nodetypes="csssssssssssssssscssscssssccccccssssssssssssscccscccsssssssssccsssssssccsssssscccsssssssssssssscccsssssccsssssssssscc" />
</svg>
